<svg width="1000" height="991" viewBox="0 0 1000 991" fill="none" xmlns="http://www.w3.org/2000/svg">
<path d="M843.607 831.66L809.614 850.342V899.9L849.849 939.645L801.763 987.241L753.677 939.645L793.845 899.9V858.081L760.67 876.954V442.893L843.607 401.375V831.66Z" fill="white"/>
<path d="M627.975 516.191L710.912 469.312V898.455L545.037 990.184L146.937 782.59V753.188L79.4895 728.654L28.9499 752.697L0 691.853L61.3345 662.413L84.8869 713.443L146.937 736.014V695.778L545.037 910.921L627.975 865.628L627.975 516.191Z" fill="white"/>
<path d="M545.044 748.621V842.982L146.944 627.839V599.115L94.7024 580.47L43.6721 604.513L15.2129 543.178L76.0567 514.228L100.1 565.749L146.944 581.942V548.576L545.044 748.621Z" fill="white"/>
<path d="M944.063 845.925L903.827 885.179L951.914 933.265L1000 885.179L959.734 845.925V782.591L997.056 763.118V322.864L827.033 235.298L416.492 454.216L507.724 499.509L831.18 325.885L901.677 363.629V642.937V811.839L944.063 788.025V845.925Z" fill="white"/>
<path d="M782.631 202.159L375.018 424.019L287.934 378.726L690.181 148.486L724.24 168.793L763.985 137.88L770.855 81.9429L837.587 90.2844L829.736 157.016L774.289 150.638L756.625 163.395L739.942 176.153L782.631 202.159Z" fill="white"/>
<path d="M229.889 352.306L640.43 122.065L602.062 98.6259L643.769 68.204L699.215 76.5455L710.01 9.81352L643.769 0L634.446 54.9557L587.341 88.8124L557.492 72.9976L146.951 307.013V465.539L545.052 676.907V586.321L229.889 427.794V352.306Z" fill="white"/>
</svg>
