<svg width="32" height="32" viewBox="0 0 32 32" fill="none" xmlns="http://www.w3.org/2000/svg">
<rect width="32" height="32" rx="5" fill="white"/>
<path d="M23.4473 24.1577L22.6234 24.6105V25.8117L23.5986 26.775L22.4331 27.9286L21.2676 26.775L22.2412 25.8117V24.7981L21.4371 25.2555V14.7348L23.4473 13.7285V24.1577Z" fill="black"/>
<path d="M18.2208 16.5114L20.231 15.3751V25.7767L16.2106 28L6.56144 22.9683V22.2557L4.92666 21.661L3.70168 22.2438L3 20.7691L4.48662 20.0555L5.05748 21.2923L6.56144 21.8394V20.8642L16.2106 26.0788L18.2208 24.981L18.2208 16.5114Z" fill="black"/>
<path d="M16.2107 22.145V24.4321L6.56153 19.2175V18.5213L5.29531 18.0694L4.05844 18.6521L3.36865 17.1655L4.84338 16.4638L5.42614 17.7126L6.56153 18.105V17.2963L16.2107 22.145Z" fill="black"/>
<path d="M25.8819 24.5034L24.9067 25.4549L26.0722 26.6204L27.2377 25.4549L26.2618 24.5034V22.9684L27.1664 22.4964V11.8255L23.0454 9.70312L13.0947 15.0092L15.306 16.107L23.1459 11.8988L24.8546 12.8136V19.5834V23.6773L25.8819 23.1001V24.5034Z" fill="black"/>
<path d="M21.9694 8.89992L12.0897 14.2774L9.979 13.1796L19.7286 7.599L20.5542 8.0912L21.5175 7.34194L21.684 5.98615L23.3014 6.18833L23.1112 7.80577L21.7673 7.65116L21.3391 7.96038L20.9347 8.26959L21.9694 8.89992Z" fill="black"/>
<path d="M8.57176 12.5392L18.5224 6.95861L17.5924 6.39049L18.6034 5.65312L19.9473 5.8553L20.2089 4.23786L18.6034 4L18.3774 5.33201L17.2357 6.15263L16.5122 5.76931L6.56152 11.4413V15.2837L16.2106 20.4068V18.2112L8.57176 14.3688V12.5392Z" fill="black"/>
</svg>
